<?xml version="1.0" encoding="UTF-8" standalone="no"?>
<!-- Created with Inkscape (http://www.inkscape.org/) -->

<svg
   xmlns:dc="http://purl.org/dc/elements/1.1/"
   xmlns:cc="http://creativecommons.org/ns#"
   xmlns:rdf="http://www.w3.org/1999/02/22-rdf-syntax-ns#"
   xmlns:svg="http://www.w3.org/2000/svg"
   xmlns="http://www.w3.org/2000/svg"
   xmlns:sodipodi="http://sodipodi.sourceforge.net/DTD/sodipodi-0.dtd"
   xmlns:inkscape="http://www.inkscape.org/namespaces/inkscape"
   version="1.1"
   id="svg2"
   xml:space="preserve"
   width="576"
   height="309.33334"
   viewBox="0 0 576 309.33334"
   sodipodi:docname="6-overview.svg"
   inkscape:version="0.92.2 5c3e80d, 2017-08-06"><metadata
     id="metadata8"><rdf:RDF><cc:Work
         rdf:about=""><dc:format>image/svg+xml</dc:format><dc:type
           rdf:resource="http://purl.org/dc/dcmitype/StillImage" /><dc:title></dc:title></cc:Work></rdf:RDF></metadata><defs
     id="defs6"><clipPath
       clipPathUnits="userSpaceOnUse"
       id="clipPath20"><path
         d="M 0,0 H 432 V 232 H 0 Z"
         id="path18"
         inkscape:connector-curvature="0" /></clipPath></defs><sodipodi:namedview
     pagecolor="#ffffff"
     bordercolor="#666666"
     borderopacity="1"
     objecttolerance="10"
     gridtolerance="10"
     guidetolerance="10"
     inkscape:pageopacity="0"
     inkscape:pageshadow="2"
     inkscape:window-width="1370"
     inkscape:window-height="1007"
     id="namedview4"
     showgrid="false"
     inkscape:zoom="0.62847222"
     inkscape:cx="288"
     inkscape:cy="154.66667"
     inkscape:window-x="458"
     inkscape:window-y="179"
     inkscape:window-maximized="0"
     inkscape:current-layer="g10" /><g
     id="g10"
     inkscape:groupmode="layer"
     inkscape:label="6-overview"
     transform="matrix(1.3333333,0,0,-1.3333333,0,309.33333)"><g
       id="g12" /><g
       id="g14"><g
         id="g16"
         clip-path="url(#clipPath20)"><path
           d="M 0,232 H 432 V 0 H 0 Z"
           style="fill:#ffffff;fill-opacity:1;fill-rule:nonzero;stroke:none"
           id="path22"
           inkscape:connector-curvature="0" /></g></g><g
       id="g24"><path
         d="m 335.5,229.5 h 96 V 0.4999966 h -96 z"
         style="fill:#e0e0e0;fill-opacity:1;fill-rule:nonzero;stroke:none"
         id="path26"
         inkscape:connector-curvature="0" /><g
         id="g28"
         transform="matrix(7.874016e-5,0,0,-7.874016e-5,335.5,229.5)"><path
           d="M 0,0 H 1219200 V 2908300 H 0 Z"
           style="fill:none;stroke:#000000;stroke-width:12700;stroke-linecap:butt;stroke-linejoin:round;stroke-miterlimit:10;stroke-dasharray:50800, 38100;stroke-dashoffset:0;stroke-opacity:0.67839996"
           id="path30"
           inkscape:connector-curvature="0" /></g><path
         d="m 167.5,229.5 h 96 V 0.4999966 h -96 z"
         style="fill:#e0e0e0;fill-opacity:1;fill-rule:nonzero;stroke:none"
         id="path32"
         inkscape:connector-curvature="0" /><g
         id="g34"
         transform="matrix(7.874016e-5,0,0,-7.874016e-5,167.5,229.5)"><path
           d="M 0,0 H 1219200 V 2908300 H 0 Z"
           style="fill:none;stroke:#000000;stroke-width:12700;stroke-linecap:butt;stroke-linejoin:round;stroke-miterlimit:10;stroke-dasharray:50800, 38100;stroke-dashoffset:0;stroke-opacity:0.67839996"
           id="path36"
           inkscape:connector-curvature="0" /></g><path
         d="m 0.5,231.5 h 95 V 1.499997 h -95 z"
         style="fill:#e0e0e0;fill-opacity:1;fill-rule:nonzero;stroke:none"
         id="path38"
         inkscape:connector-curvature="0" /><g
         id="g40"
         transform="matrix(7.874016e-5,0,0,-7.874016e-5,0.5,231.5)"><path
           d="M 0,0 H 1206500 V 2921000 H 0 Z"
           style="fill:none;stroke:#000000;stroke-width:12700;stroke-linecap:butt;stroke-linejoin:round;stroke-miterlimit:10;stroke-dasharray:50800, 38100;stroke-dashoffset:0;stroke-opacity:0.67839996"
           id="path42"
           inkscape:connector-curvature="0" /></g><path
         d="m 6.5,206.5 h 82 V 9.499997 h -82 z"
         style="fill:#f9f9f9;fill-opacity:1;fill-rule:nonzero;stroke:none"
         id="path44"
         inkscape:connector-curvature="0" /><g
         id="g46"
         transform="matrix(7.874016e-5,0,0,-7.874016e-5,6.5,206.5)"><path
           d="M 0,0 H 1041400 V 2501900 H 0 Z"
           style="fill:none;stroke:#000000;stroke-width:12700;stroke-linecap:butt;stroke-linejoin:round;stroke-miterlimit:10;stroke-dasharray:none;stroke-opacity:1"
           id="path48"
           inkscape:connector-curvature="0" /></g><g
         id="g50"
         transform="translate(12.66563,-129)"><text
           transform="matrix(1,0,0,-1,0,232)"
           style="font-style:italic;font-variant:normal;font-size:14px;font-family:Arial;-inkscape-font-specification:Arial-ItalicMT;writing-mode:lr-tb;fill:#105b8e;fill-opacity:1;fill-rule:nonzero;stroke:none"
           id="text54"><tspan
             x="0 9.0005999 17.0002 24.9998 28 31.0002 38.000198 45.999802 49.999599 52.999802 60.999401"
             y="0"
             sodipodi:role="line"
             id="tspan52">Application</tspan></text>
</g><path
         d="m 174.5,204.5 h 82 V 7.499997 h -82 z"
         style="fill:#f9f9f9;fill-opacity:1;fill-rule:nonzero;stroke:none"
         id="path56"
         inkscape:connector-curvature="0" /><g
         id="g58"
         transform="matrix(7.874016e-5,0,0,-7.874016e-5,174.5,204.5)"><path
           d="M 0,0 H 1041400 V 2501900 H 0 Z"
           style="fill:none;stroke:#000000;stroke-width:12700;stroke-linecap:butt;stroke-linejoin:round;stroke-miterlimit:10;stroke-dasharray:none;stroke-opacity:1"
           id="path60"
           inkscape:connector-curvature="0" /></g><g
         id="g62"
         transform="translate(195.5691,-106)"><text
           transform="matrix(1,0,0,-1,0,232)"
           style="font-style:italic;font-variant:normal;font-weight:bold;font-size:14px;font-family:Arial;-inkscape-font-specification:Arial-BoldItalicMT;writing-mode:lr-tb;fill:#105b8e;fill-opacity:1;fill-rule:nonzero;stroke:none"
           id="text66"><tspan
             x="0 10.9998 21.0056 30.003401"
             y="0"
             sodipodi:role="line"
             id="tspan64">OCSE</tspan></text>
</g><g
         id="g68"
         transform="translate(181.5691,-122)"><text
           transform="matrix(1,0,0,-1,0,232)"
           style="font-style:italic;font-variant:normal;font-size:14px;font-family:Arial;-inkscape-font-specification:Arial-ItalicMT;writing-mode:lr-tb;fill:#105b8e;fill-opacity:1;fill-rule:nonzero;stroke:none"
           id="text72"><tspan
             x="0 10.9998 19.003599 27.007401 35.0112 45.016998 54.014801 63.0126"
             y="0"
             sodipodi:role="line"
             id="tspan70">OpenCAPI</tspan></text>
</g><g
         id="g74"
         transform="translate(181.5691,-139)"><text
           transform="matrix(1,0,0,-1,0,232)"
           style="font-style:italic;font-variant:normal;font-size:14px;font-family:Arial;-inkscape-font-specification:Arial-ItalicMT;writing-mode:lr-tb;fill:#105b8e;fill-opacity:1;fill-rule:nonzero;stroke:none"
           id="text78"><tspan
             x="0 9.0005999 11.9952 23.9918 31.9984 34.993 42.999599 47.002201 49.996799 58.003399"
             y="0"
             sodipodi:role="line"
             id="tspan76">Simulation</tspan></text>
</g><g
         id="g80"
         transform="translate(192.5691,-156)"><text
           transform="matrix(1,0,0,-1,0,232)"
           style="font-style:italic;font-variant:normal;font-size:14px;font-family:Arial;-inkscape-font-specification:Arial-ItalicMT;writing-mode:lr-tb;fill:#105b8e;fill-opacity:1;fill-rule:nonzero;stroke:none"
           id="text84"><tspan
             x="0 9.0005999 17.0072 25.0138 28.0084"
             y="0"
             sodipodi:role="line"
             id="tspan82">Engin</tspan></text>
</g><g
         id="g86"
         transform="translate(228.5691,-156)"><text
           transform="matrix(1,0,0,-1,0,232)"
           style="font-style:italic;font-variant:normal;font-size:14px;font-family:Arial;-inkscape-font-specification:Arial-ItalicMT;writing-mode:lr-tb;fill:#105b8e;fill-opacity:1;fill-rule:nonzero;stroke:none"
           id="text90"><tspan
             x="0"
             y="0"
             id="tspan88">e</tspan></text>
</g><path
         d="m 342.5,204.5 h 82 V 7.499997 h -82 z"
         style="fill:#f9f9f9;fill-opacity:1;fill-rule:nonzero;stroke:none"
         id="path92"
         inkscape:connector-curvature="0" /><g
         id="g94"
         transform="matrix(7.874016e-5,0,0,-7.874016e-5,342.5,204.5)"><path
           d="M 0,0 H 1041400 V 2501900 H 0 Z"
           style="fill:none;stroke:#000000;stroke-width:12700;stroke-linecap:butt;stroke-linejoin:round;stroke-miterlimit:10;stroke-dasharray:none;stroke-opacity:1"
           id="path96"
           inkscape:connector-curvature="0" /></g><g
         id="g98"
         transform="translate(369.475,-122)"><text
           transform="matrix(1,0,0,-1,0,232)"
           style="font-style:italic;font-variant:normal;font-size:14px;font-family:Arial;-inkscape-font-specification:Arial-ItalicMT;writing-mode:lr-tb;fill:#105b8e;fill-opacity:1;fill-rule:nonzero;stroke:none"
           id="text102"><tspan
             x="0 10.0002 19.006399"
             y="0"
             sodipodi:role="line"
             id="tspan100">RTL</tspan></text>
</g><g
         id="g104"
         transform="translate(352.475,-138)"><text
           transform="matrix(1,0,0,-1,0,232)"
           style="font-style:italic;font-variant:normal;font-size:14px;font-family:Arial;-inkscape-font-specification:Arial-ItalicMT;writing-mode:lr-tb;fill:#105b8e;fill-opacity:1;fill-rule:nonzero;stroke:none"
           id="text108"><tspan
             x="0 9.0005999 11.9952 23.9918 31.9984 34.993 42.999599 47.002201 55.008801"
             y="0"
             sodipodi:role="line"
             id="tspan106">Simulator</tspan></text>
</g><g
         id="g110"
         transform="translate(24.3737,-18)"><text
           transform="matrix(1,0,0,-1,0,232)"
           style="font-style:italic;font-variant:normal;font-size:12px;font-family:Arial;-inkscape-font-specification:Arial-ItalicMT;writing-mode:lr-tb;fill:#105b8e;fill-opacity:1;fill-rule:nonzero;stroke:none"
           id="text114"><tspan
             x="0 8.0003996 12 18.999599 24.999599 31.999201 37.999199"
             y="0"
             sodipodi:role="line"
             id="tspan112">Process</tspan></text>
</g><g
         id="g116"
         transform="translate(71.3737,-18)"><text
           transform="matrix(1,0,0,-1,0,232)"
           style="font-style:italic;font-variant:normal;font-size:12px;font-family:Arial;-inkscape-font-specification:Arial-ItalicMT;writing-mode:lr-tb;fill:#105b8e;fill-opacity:1;fill-rule:nonzero;stroke:none"
           id="text120"><tspan
             x="0"
             y="0"
             id="tspan118">2</tspan></text>
</g><g
         id="g122"
         transform="translate(192.2772,-21)"><text
           transform="matrix(1,0,0,-1,0,232)"
           style="font-style:italic;font-variant:normal;font-size:12px;font-family:Arial;-inkscape-font-specification:Arial-ItalicMT;writing-mode:lr-tb;fill:#105b8e;fill-opacity:1;fill-rule:nonzero;stroke:none"
           id="text126"><tspan
             x="0 8.0003996 12 18.999599 24.999599 31.999201 37.999199"
             y="0"
             sodipodi:role="line"
             id="tspan124">Process</tspan></text>
</g><g
         id="g128"
         transform="translate(239.2772,-21)"><text
           transform="matrix(1,0,0,-1,0,232)"
           style="font-style:italic;font-variant:normal;font-size:12px;font-family:Arial;-inkscape-font-specification:Arial-ItalicMT;writing-mode:lr-tb;fill:#105b8e;fill-opacity:1;fill-rule:nonzero;stroke:none"
           id="text132"><tspan
             x="0"
             y="0"
             id="tspan130">1</tspan></text>
</g><g
         id="g134"
         transform="translate(360.1806,-21)"><text
           transform="matrix(1,0,0,-1,0,232)"
           style="font-style:italic;font-variant:normal;font-size:12px;font-family:Arial;-inkscape-font-specification:Arial-ItalicMT;writing-mode:lr-tb;fill:#105b8e;fill-opacity:1;fill-rule:nonzero;stroke:none"
           id="text138"><tspan
             x="0 8.0003996 12 18.999599 24.999599 31.999201 37.999199"
             y="0"
             sodipodi:role="line"
             id="tspan136">Process</tspan></text>
</g><g
         id="g140"
         transform="translate(407.1806,-21)"><text
           transform="matrix(1,0,0,-1,0,232)"
           style="font-style:italic;font-variant:normal;font-size:12px;font-family:Arial;-inkscape-font-specification:Arial-ItalicMT;writing-mode:lr-tb;fill:#105b8e;fill-opacity:1;fill-rule:nonzero;stroke:none"
           id="text144"><tspan
             x="0"
             y="0"
             id="tspan142">0</tspan></text>
</g><path
         d="m 95.5,107 13.5,13.5 v -6.75 h 45.0001 v 6.75 L 167.5,107 154.0001,93.50008 v 6.75002 H 109 v -6.75002 z"
         style="fill:#f9f9f9;fill-opacity:1;fill-rule:evenodd;stroke:none"
         id="path146"
         inkscape:connector-curvature="0" /><g
         id="g148"
         transform="matrix(7.874016e-5,0,0,-7.874016e-5,95.5,120.5)"><path
           d="M 0,171450 171450,0 V 85725 H 742951 V 0 L 914400,171450 742951,342899 V 257174 H 171450 v 85725 z"
           style="fill:none;stroke:#000000;stroke-width:12700;stroke-linecap:butt;stroke-linejoin:round;stroke-miterlimit:10;stroke-dasharray:none;stroke-opacity:1"
           id="path150"
           inkscape:connector-curvature="0" /></g><g
         id="g152"
         transform="translate(112.9324,-129)"><text
           transform="matrix(1,0,0,-1,0,232)"
           style="font-style:italic;font-variant:normal;font-size:12px;font-family:Arial;-inkscape-font-specification:Arial-ItalicMT;writing-mode:lr-tb;fill:#000000;fill-opacity:1;fill-rule:nonzero;stroke:none"
           id="text156"><tspan
             x="0 8.0003996 15 21 27 33.999599"
             y="0"
             sodipodi:role="line"
             id="tspan154">Socket</tspan></text>
</g><path
         d="m 263.5,108 13.5,13.5 v -6.75 h 45.0001 v 6.75 L 335.5,108 322.0001,94.50008 v 6.75002 H 277 v -6.75002 z"
         style="fill:#f9f9f9;fill-opacity:1;fill-rule:evenodd;stroke:none"
         id="path158"
         inkscape:connector-curvature="0" /><g
         id="g160"
         transform="matrix(7.874016e-5,0,0,-7.874016e-5,263.5,121.5)"><path
           d="M 0,171450 171450,0 V 85725 H 742951 V 0 L 914400,171450 742951,342899 V 257174 H 171450 v 85725 z"
           style="fill:none;stroke:#000000;stroke-width:12700;stroke-linecap:butt;stroke-linejoin:round;stroke-miterlimit:10;stroke-dasharray:none;stroke-opacity:1"
           id="path162"
           inkscape:connector-curvature="0" /></g><g
         id="g164"
         transform="translate(280.8359,-128)"><text
           transform="matrix(1,0,0,-1,0,232)"
           style="font-style:italic;font-variant:normal;font-size:12px;font-family:Arial;-inkscape-font-specification:Arial-ItalicMT;writing-mode:lr-tb;fill:#000000;fill-opacity:1;fill-rule:nonzero;stroke:none"
           id="text168"><tspan
             x="0 8.0003996 15 21 27 33.999599"
             y="0"
             sodipodi:role="line"
             id="tspan166">Socket</tspan></text>
</g></g></g></svg>