<?xml version="1.0" encoding="UTF-8" standalone="no"?>
<!-- Generator: Adobe Illustrator 16.0.0, SVG Export Plug-In . SVG Version: 6.00 Build 0)  -->

<svg
   xmlns:dc="http://purl.org/dc/elements/1.1/"
   xmlns:cc="http://creativecommons.org/ns#"
   xmlns:rdf="http://www.w3.org/1999/02/22-rdf-syntax-ns#"
   xmlns:svg="http://www.w3.org/2000/svg"
   xmlns="http://www.w3.org/2000/svg"
   xmlns:sodipodi="http://sodipodi.sourceforge.net/DTD/sodipodi-0.dtd"
   xmlns:inkscape="http://www.inkscape.org/namespaces/inkscape"
   version="1.1"
   id="Layer_1"
   x="0px"
   y="0px"
   width="380.633"
   height="169.44936"
   viewBox="0 0 380.63299 169.44935"
   enable-background="new 0 0 252.235 141.395"
   xml:space="preserve"
   sodipodi:docname="OC-Accel_design_logo.svg"
   inkscape:version="0.92.2 5c3e80d, 2017-08-06"><metadata
     id="metadata41"><rdf:RDF><cc:Work
         rdf:about=""><dc:format>image/svg+xml</dc:format><dc:type
           rdf:resource="http://purl.org/dc/dcmitype/StillImage" /><dc:title></dc:title></cc:Work></rdf:RDF></metadata><defs
     id="defs39" /><sodipodi:namedview
     pagecolor="#ffffff"
     bordercolor="#666666"
     borderopacity="1"
     objecttolerance="10"
     gridtolerance="10"
     guidetolerance="10"
     inkscape:pageopacity="0"
     inkscape:pageshadow="2"
     inkscape:window-width="1885"
     inkscape:window-height="1036"
     id="namedview37"
     showgrid="false"
     inkscape:zoom="2.8284272"
     inkscape:cx="206.10077"
     inkscape:cy="25.028785"
     inkscape:window-x="1477"
     inkscape:window-y="55"
     inkscape:window-maximized="0"
     inkscape:current-layer="layer1" /><path
     d="m 126.62747,86.312556 c -2.566,0 -4.945,-0.447 -7.067,-1.329 -2.125,-0.883 -3.978,-2.153 -5.505,-3.773 -1.525,-1.621 -2.725,-3.601 -3.563,-5.887 -0.838,-2.281 -1.263,-4.857 -1.263,-7.654 0,-2.781 0.425,-5.349 1.263,-7.631 0.839,-2.285 2.038,-4.267 3.563,-5.886 1.525,-1.621 3.377,-2.894 5.503,-3.787 2.124,-0.89 4.504,-1.342 7.069,-1.342 2.564,0 4.946,0.446 7.079,1.329 2.135,0.884 3.991,2.158 5.518,3.787 1.525,1.628 2.725,3.613 3.564,5.898 0.837,2.283 1.262,4.85 1.262,7.631 0,2.795 -0.425,5.371 -1.262,7.654 -0.84,2.286 -2.039,4.268 -3.565,5.887 -1.527,1.621 -3.384,2.892 -5.517,3.773 -2.13,0.883 -4.512,1.33 -7.079,1.33 m 0,-34.55 c -2.095,0 -4.039,0.365 -5.781,1.088 -1.739,0.721 -3.255,1.773 -4.505,3.131 -1.251,1.359 -2.234,3.042 -2.925,5.002 -0.69,1.965 -1.041,4.214 -1.041,6.686 0,2.487 0.351,4.739 1.041,6.696 0.689,1.952 1.674,3.63 2.925,4.989 1.25,1.357 2.766,2.406 4.504,3.117 1.741,0.715 3.687,1.076 5.782,1.076 2.111,0 4.065,-0.361 5.808,-1.076 1.737,-0.709 3.247,-1.758 4.489,-3.116 1.243,-1.359 2.218,-3.037 2.899,-4.989 0.684,-1.959 1.03,-4.213 1.03,-6.697 0,-2.47 -0.347,-4.719 -1.03,-6.687 -0.682,-1.96 -1.656,-3.644 -2.899,-5.001 -1.242,-1.357 -2.752,-2.411 -4.491,-3.131 -1.742,-0.722 -3.695,-1.088 -5.806,-1.088 z"
     id="path2"
     inkscape:connector-curvature="0"
     style="fill:#37352f" /><path
     d="m 151.41247,94.886556 v -34.77 h 1.599 c 0.546,0 0.897,0.301 0.985,0.846 l 0.191,3.273 c 1.045,-1.3 2.255,-2.364 3.605,-3.168 1.543,-0.918 3.289,-1.384 5.191,-1.384 3.168,0 5.677,1.118 7.458,3.323 1.768,2.19 2.663,5.506 2.663,9.852 0,1.865 -0.247,3.632 -0.735,5.249 -0.49,1.626 -1.225,3.058 -2.182,4.257 -0.96,1.202 -2.152,2.162 -3.544,2.854 -1.394,0.692 -3.019,1.043 -4.831,1.043 -1.744,0 -3.279,-0.325 -4.563,-0.967 -1.085,-0.543 -2.056,-1.31 -2.896,-2.287 v 11.879 h -2.941 m 2.942,-14.801 c 0.927,1.381 1.958,2.362 3.068,2.918 1.129,0.564 2.452,0.851 3.933,0.851 1.448,0 2.729,-0.267 3.809,-0.789 1.078,-0.522 1.994,-1.272 2.722,-2.229 0.732,-0.961 1.292,-2.132 1.663,-3.477 0.374,-1.354 0.563,-2.867 0.563,-4.5 0,-3.691 -0.684,-6.434 -2.032,-8.153 -1.336,-1.7 -3.281,-2.562 -5.783,-2.562 -1.623,0 -3.109,0.424 -4.419,1.259 -1.303,0.829 -2.487,2 -3.523,3.48 v 13.202 z"
     id="path4"
     inkscape:connector-curvature="0"
     style="fill:#37352f" /><path
     d="m 191.04647,86.261556 c -1.755,0 -3.38,-0.311 -4.83,-0.922 -1.453,-0.615 -2.716,-1.521 -3.754,-2.699 -1.035,-1.172 -1.844,-2.627 -2.404,-4.322 -0.556,-1.688 -0.838,-3.645 -0.838,-5.814 0,-1.836 0.266,-3.554 0.788,-5.105 0.526,-1.561 1.297,-2.924 2.289,-4.055 0.994,-1.133 2.229,-2.031 3.673,-2.67 1.442,-0.64 3.099,-0.963 4.922,-0.963 1.451,0 2.818,0.254 4.063,0.756 1.248,0.502 2.348,1.246 3.268,2.209 0.917,0.961 1.65,2.158 2.178,3.557 0.525,1.396 0.792,3.018 0.792,4.82 0,0.438 -0.064,0.729 -0.202,0.914 -0.152,0.201 -0.392,0.303 -0.709,0.303 h -18.17 v 0.234 c 0,1.867 0.219,3.529 0.65,4.938 0.428,1.402 1.045,2.593 1.835,3.539 0.785,0.939 1.747,1.656 2.857,2.131 1.116,0.477 2.385,0.717 3.769,0.717 1.243,0 2.331,-0.137 3.237,-0.408 0.91,-0.273 1.686,-0.584 2.305,-0.922 0.623,-0.34 1.122,-0.65 1.483,-0.922 0.428,-0.32 0.734,-0.47 0.964,-0.47 0.302,0 0.549,0.125 0.714,0.362 l 0.778,0.955 -0.126,0.157 c -0.422,0.527 -0.984,1.024 -1.673,1.478 -0.684,0.449 -1.453,0.839 -2.288,1.156 -0.832,0.318 -1.735,0.574 -2.687,0.763 -0.952,0.187 -1.923,0.283 -2.884,0.283 m 7.456,-16.045 c -0.022,-1.224 -0.209,-2.338 -0.556,-3.316 -0.367,-1.038 -0.894,-1.93 -1.562,-2.648 -0.668,-0.717 -1.474,-1.273 -2.394,-1.656 -0.925,-0.385 -1.959,-0.58 -3.072,-0.58 -1.269,0 -2.419,0.201 -3.419,0.594 -0.998,0.393 -1.872,0.965 -2.598,1.699 -0.73,0.738 -1.33,1.638 -1.78,2.672 -0.422,0.966 -0.716,2.054 -0.875,3.236 h 16.256 z"
     id="path6"
     inkscape:connector-curvature="0"
     style="fill:#37352f" /><path
     d="m 226.03347,85.930556 v -16.432 c 0,-2.304 -0.529,-4.13 -1.572,-5.427 -1.031,-1.28 -2.635,-1.93 -4.767,-1.93 -1.609,0 -3.124,0.411 -4.504,1.225 -1.367,0.806 -2.609,1.938 -3.693,3.367 v 19.196 h -2.942 v -25.814 h 1.599 c 0.547,0 0.897,0.301 0.985,0.846 l 0.192,3.209 c 1.092,-1.27 2.337,-2.312 3.709,-3.105 1.559,-0.9 3.331,-1.355 5.265,-1.355 1.417,0 2.687,0.229 3.772,0.68 1.093,0.455 2.011,1.121 2.729,1.978 0.715,0.856 1.262,1.896 1.625,3.091 0.361,1.188 0.544,2.547 0.544,4.041 v 16.432 h -2.942"
     id="path8"
     inkscape:connector-curvature="0"
     style="fill:#37352f" /><path
     d="m 253.14947,86.339556 c -2.517,0 -4.855,-0.449 -6.953,-1.33 -2.102,-0.883 -3.932,-2.153 -5.441,-3.775 -1.51,-1.621 -2.696,-3.605 -3.525,-5.898 -0.829,-2.289 -1.249,-4.867 -1.249,-7.666 0,-2.75 0.434,-5.297 1.287,-7.568 0.856,-2.276 2.072,-4.26 3.615,-5.897 1.545,-1.639 3.423,-2.926 5.582,-3.825 2.157,-0.898 4.569,-1.354 7.168,-1.354 2.48,0 4.712,0.392 6.632,1.163 1.917,0.77 3.688,1.872 5.263,3.277 l 0.165,0.146 -0.913,1.327 c -0.125,0.188 -0.374,0.412 -0.842,0.412 -0.273,0 -0.629,-0.189 -1.151,-0.614 -0.441,-0.36 -1.071,-0.769 -1.87,-1.21 -0.795,-0.438 -1.802,-0.848 -2.993,-1.214 -1.186,-0.363 -2.629,-0.548 -4.29,-0.548 -2.127,0 -4.102,0.369 -5.87,1.101 -1.765,0.729 -3.302,1.787 -4.569,3.146 -1.269,1.359 -2.273,3.043 -2.987,5.002 -0.716,1.965 -1.079,4.205 -1.079,6.658 0,2.502 0.367,4.766 1.091,6.731 0.724,1.962 1.729,3.642 2.988,4.991 1.259,1.349 2.767,2.4 4.481,3.121 1.716,0.721 3.597,1.086 5.59,1.086 1.271,0 2.416,-0.084 3.405,-0.252 0.987,-0.164 1.907,-0.416 2.734,-0.748 0.826,-0.329 1.606,-0.74 2.319,-1.221 0.714,-0.481 1.432,-1.056 2.133,-1.707 0.112,-0.091 0.213,-0.156 0.312,-0.205 0.12,-0.06 0.243,-0.09 0.366,-0.09 0.233,0 0.444,0.086 0.609,0.25 l 1.183,1.272 -0.159,0.17 c -0.756,0.806 -1.585,1.54 -2.465,2.181 -0.887,0.646 -1.87,1.202 -2.924,1.656 -1.054,0.455 -2.226,0.811 -3.485,1.059 -1.26,0.246 -2.659,0.373 -4.158,0.373"
     id="path10"
     inkscape:connector-curvature="0"
     style="fill:#37352f" /><path
     d="m 299.60647,85.930556 c -0.298,0 -0.549,-0.084 -0.745,-0.25 -0.184,-0.151 -0.327,-0.351 -0.428,-0.59 l -4.161,-10.304 h -17.344 l -4.161,10.3 c -0.079,0.222 -0.226,0.422 -0.433,0.586 -0.212,0.172 -0.47,0.258 -0.766,0.258 h -2.356 l 14.936,-36.5 h 2.905 l 14.935,36.5 h -2.382 m -6.323,-13.577 -7.188,-17.847 c -0.172,-0.399 -0.341,-0.856 -0.506,-1.367 -0.039,0.13 -0.079,0.257 -0.119,0.383 -0.121,0.38 -0.243,0.717 -0.362,1.011 l -7.215,17.82 z"
     id="path12"
     inkscape:connector-curvature="0"
     style="fill:#37352f" /><path
     d="m 308.61647,85.930556 v -36.5 h 9.562 c 4.265,0 7.534,0.953 9.717,2.834 2.193,1.89 3.306,4.615 3.306,8.102 0,1.605 -0.308,3.104 -0.912,4.453 -0.606,1.35 -1.483,2.529 -2.608,3.508 -1.124,0.977 -2.505,1.746 -4.104,2.287 -1.596,0.541 -3.411,0.814 -5.397,0.814 h -6.44 v 14.502 h -3.124 m 9.561,-17.087 c 1.543,0 2.944,-0.217 4.166,-0.647 1.217,-0.428 2.264,-1.028 3.11,-1.783 0.842,-0.752 1.497,-1.651 1.947,-2.674 0.448,-1.024 0.678,-2.159 0.678,-3.372 0,-2.677 -0.827,-4.763 -2.459,-6.199 -1.642,-1.443 -4.146,-2.176 -7.442,-2.176 h -6.44 v 16.852 h 6.44 z"
     id="path14"
     inkscape:connector-curvature="0"
     style="fill:#37352f" /><rect
     x="339.29849"
     y="49.430557"
     width="3.1199999"
     height="36.5"
     id="rect16"
     style="fill:#37352f" /><path
     d="m 68.722063,110.00343 c -23.185,0 -41.98,-18.795998 -41.98,-41.981998 0,-23.185 18.796,-41.981 41.98,-41.981 12.686,0 24.047,5.634 31.744997,14.526 -8.368997,-11.192 -21.725997,-18.436 -36.774997,-18.436 -25.346,0 -45.893,20.546 -45.893,45.891 0,25.345 20.547,45.891998 45.893,45.891998 15.049,0 28.406,-7.245 36.773997,-18.435998 -7.696997,8.891998 -19.057997,14.525998 -31.743997,14.525998"
     id="path18"
     inkscape:connector-curvature="0"
     style="fill:#0988a1" /><path
     d="m 105.07106,93.947432 c -14.318997,0 -25.926997,-11.607 -25.926997,-25.926 0,-14.318 11.607,-25.925 25.926997,-25.925 4.584,0 8.887,1.194 12.623,3.282 -4.743,-3.576 -10.645,-5.697 -17.041,-5.697 -15.650997,0 -28.340997,12.689 -28.340997,28.34 0,15.652 12.689,28.341 28.340997,28.341 6.396,0 12.298,-2.122 17.041,-5.697 -3.736,2.088 -8.039,3.282 -12.623,3.282"
     id="path20"
     inkscape:connector-curvature="0"
     style="fill:#69b64a" /><path
     d="m 351.60647,49.430556 v 0.783 h -2.641 v 6.847 h -0.941 v -6.847 h -2.667 v -0.783 h 6.249 m 5.786,5.373 c 0.043,-0.141 0.101,-0.27 0.172,-0.385 l 2.826,-4.83 c 0.043,-0.069 0.086,-0.115 0.125,-0.131 0.04,-0.019 0.104,-0.027 0.193,-0.027 h 0.756 v 7.63 h -0.822 v -5.878 l 0.066,-0.584 -2.906,5.041 c -0.07,0.143 -0.182,0.213 -0.332,0.213 h -0.146 c -0.15,0 -0.261,-0.07 -0.331,-0.213 l -2.959,-5.016 0.066,0.559 v 5.878 h -0.837 v -7.63 h 0.757 c 0.089,0 0.152,0.009 0.192,0.027 0.04,0.016 0.09,0.062 0.152,0.131 l 2.88,4.83 z"
     id="path22"
     inkscape:connector-curvature="0"
     style="fill:#37352f" /><g
     id="g24"
     transform="translate(-48.847937,22.130432)" /><g
     id="g26"
     transform="translate(-48.847937,22.130432)" /><g
     id="g28"
     transform="translate(-48.847937,22.130432)" /><g
     id="g30"
     transform="translate(-48.847937,22.130432)" /><g
     id="g32"
     transform="translate(-48.847937,22.130432)" /><g
     id="g34"
     transform="translate(-48.847937,22.130432)" /><g
     inkscape:groupmode="layer"
     id="layer1"
     inkscape:label="Layer 1"
     transform="translate(-48.847937,22.130432)"><text
       xml:space="preserve"
       style="font-style:normal;font-weight:normal;font-size:24px;line-height:1.25;font-family:sans-serif;letter-spacing:0px;word-spacing:0px;fill:#37352f;fill-opacity:1;stroke:none"
       x="81.638664"
       y="123.1953"
       id="text3796"><tspan
         sodipodi:role="line"
         id="tspan3794"
         x="81.638664"
         y="123.1953"
         style="font-style:normal;font-variant:normal;font-weight:normal;font-stretch:normal;font-size:29.33333397px;line-height:54px;font-family:Arial;-inkscape-font-specification:Arial;fill:#37352f;fill-opacity:1">Acceleration Framework</tspan></text>
<rect
       style="fill:none;fill-opacity:1;stroke:#284c55;stroke-width:1.92416704;stroke-miterlimit:4;stroke-dasharray:none;stroke-opacity:1"
       id="rect4603"
       width="378.70883"
       height="167.52519"
       x="49.81002"
       y="-21.168348" /></g></svg>